#N canvas 652 80 1119 811 10;
#X declare -lib mrpeach;
#X obj 225 126 key;
#X obj 231 169 select 97 115 100 102;
#X obj 229 215 bng 15 250 50 0 empty empty empty 17 7 0 10 -262144
-1 -1;
#X floatatom 232 256 5 0 0 0 - - -;
#X obj 277 221 bng 15 250 50 0 empty empty empty 17 7 0 10 -262144
-1 -1;
#X floatatom 278 262 5 0 0 0 - - -;
#X obj 329 215 bng 15 250 50 0 empty empty empty 17 7 0 10 -262144
-1 -1;
#X floatatom 330 256 5 0 0 0 - - -;
#X obj 377 221 bng 15 250 50 0 empty empty empty 17 7 0 10 -262144
-1 -1;
#X floatatom 378 262 5 0 0 0 - - -;
#X floatatom 257 320 5 0 0 0 - - -;
#X floatatom 342 318 5 0 0 0 - - -;
#X obj 307 364 osc~;
#X obj 309 405 *~;
#X obj 306 450 dac~;
#X obj 398 376 vline~;
#X msg 211 456 send /t \$1;
#X obj 267 127 import mrpeach;
#X obj 222 562 packOSC;
#X obj 211 666 udpsend;
#X msg 287 594 disconnect;
#X msg 457 335 40 \, 0 50 80 \, 0 200 100;
#X obj 662 251 tgl 15 0 empty empty empty 17 7 0 10 -262144 -1 -1 0
1;
#X floatatom 670 348 5 0 0 0 - - -;
#X obj 670 389 osc~;
#X obj 672 430 *~;
#X obj 669 475 dac~;
#X obj 716 412 vline~;
#X obj 668 280 metro 100;
#X obj 670 311 random 70;
#X msg 542 512 send /l \$1;
#X msg 367 465 send /p \$1;
#X msg 776 381 15 \, 7 100 10 \, 0 100 0;
#X msg 356 621 connect 10.0.0.16 12000;
#X text 389 599 IP localhost;
#X connect 0 0 1 0;
#X connect 1 0 2 0;
#X connect 1 1 4 0;
#X connect 1 2 6 0;
#X connect 1 3 8 0;
#X connect 2 0 3 0;
#X connect 3 0 10 0;
#X connect 3 0 21 0;
#X connect 4 0 5 0;
#X connect 5 0 10 0;
#X connect 5 0 21 0;
#X connect 6 0 7 0;
#X connect 7 0 11 0;
#X connect 7 0 21 0;
#X connect 8 0 9 0;
#X connect 9 0 11 0;
#X connect 9 0 21 0;
#X connect 10 0 16 0;
#X connect 10 0 12 0;
#X connect 11 0 12 0;
#X connect 11 0 31 0;
#X connect 12 0 13 0;
#X connect 13 0 14 0;
#X connect 13 0 14 1;
#X connect 15 0 13 1;
#X connect 16 0 18 0;
#X connect 18 0 19 0;
#X connect 20 0 19 0;
#X connect 21 0 15 0;
#X connect 22 0 28 0;
#X connect 22 0 30 0;
#X connect 23 0 30 0;
#X connect 23 0 24 0;
#X connect 23 0 32 0;
#X connect 24 0 25 0;
#X connect 25 0 26 0;
#X connect 25 0 26 1;
#X connect 27 0 25 1;
#X connect 28 0 29 0;
#X connect 29 0 23 0;
#X connect 30 0 18 0;
#X connect 31 0 18 0;
#X connect 32 0 27 0;
#X connect 33 0 19 0;
